<?xml version="1.0" encoding="utf-8"?>
<!-- Generator: Adobe Illustrator 25.0.0, SVG Export Plug-In . SVG Version: 6.00 Build 0)  -->
<svg version="1.1" id="Camada_1" xmlns="http://www.w3.org/2000/svg" xmlns:xlink="http://www.w3.org/1999/xlink" x="0px" y="0px"
	 viewBox="0 0 1417.32 1417.32" style="enable-background:new 0 0 1417.32 1417.32;" xml:space="preserve">
<style type="text/css">
	.st0{fill:#FFFFFF;}
</style>
<g>
	<g>
		<g>
			<g>
				<g>
					<g>
						<g>
							<g>
								<g>
									<path class="st0" d="M957.61,1417.08H459.71C206.24,1417.08,0,1210.91,0,957.47V459.6C0,206.17,206.24,0,459.71,0h497.91
										c253.47,0,459.71,206.17,459.71,459.6v497.87C1417.32,1210.91,1211.08,1417.08,957.61,1417.08z M459.71,159.46
										c-165.55,0-300.23,134.66-300.23,300.15v497.87c0,165.49,134.68,300.15,300.23,300.15h497.91
										c165.55,0,300.23-134.66,300.23-300.15V459.6c0-165.49-134.68-300.15-300.23-300.15H459.71z"/>
								</g>
							</g>
						</g>
					</g>
				</g>
			</g>
		</g>
	</g>
	<g>
		<g>
			<g>
				<g>
					<g>
						<g>
							<g>
								<g>
									<path class="st0" d="M714.27,1066.09c-197.21,0-357.62-160.39-357.62-357.53c0-197.18,160.41-357.57,357.62-357.57
										c197.21,0,357.62,160.39,357.62,357.57C1071.89,905.7,911.48,1066.09,714.27,1066.09z M714.27,510.45
										c-109.25,0-198.14,88.88-198.14,198.11s88.89,198.07,198.14,198.07c109.25,0,198.14-88.84,198.14-198.07
										S823.52,510.45,714.27,510.45z"/>
								</g>
							</g>
						</g>
					</g>
				</g>
			</g>
		</g>
	</g>
	<g>
		<g>
			<g>
				<g>
					<g>
						<g>
							<g>
								<g>
									<path class="st0" d="M1150.72,347.68c0,44.25-35.88,80.13-80.14,80.13c-44.26,0-80.14-35.88-80.14-80.13
										c0-44.26,35.88-80.13,80.14-80.13C1114.83,267.55,1150.72,303.42,1150.72,347.68z"/>
								</g>
							</g>
						</g>
					</g>
				</g>
			</g>
		</g>
	</g>
</g>
</svg>
