<svg xmlns="http://www.w3.org/2000/svg" viewBox="0 0 213.47 246.31"><defs><style>.cls-1{fill:#d7d8d8;}.cls-2{fill:#b11c2a;}.cls-3{fill:#0091a4;}</style></defs><g id="Layer_2" data-name="Layer 2"><g id="Camada_1" data-name="Camada 1"><path class="cls-1" d="M189.77,75.26h0L189.6,130l-11.85,6.84-23.7,13.69-11.85,6.84h0l-11.85,6.84V109.48l-11.85,6.84h0l-11.85,6.84v82.1l11.85-6.84,11.85-6.84,11.85-6.84h0l11.85-6.83h0l11.84-6.84h0l11.84-6.84,11.85-6.84h0v41h0l11.85-6.84,11.85-6.85h0l.16-123.15Zm11.69,20.53ZM142.2,171.05Zm47.4-27.36h0Zm11.86-20.53Z"/><path class="cls-2" d="M201.62,54.73l-11.85-6.84h0l-11.85-6.84-11.85-6.84h0l-11.85-6.84h0l-11.85-6.84h0l-11.85-6.84L118.67,6.84,106.82,0,83.12,13.68,71.27,20.52h0L59.42,27.37h0L47.56,34.21h0L35.71,41.05h0L23.86,47.89,12,54.73,0,61.58,23.81,75.33l11.9-6.91h0l11.85-6.84,11.86-6.85h0l11.85,6.84h0l11.85,6.84,23.7,13.68h0l11.85-6.84,11.85-6.84-11.85-6.84-11.85-6.84L83.12,41.05h0L95,34.21l11.85-6.84,11.85,6.84,11.85,6.84h0l11.85,6.84h0l11.85,6.83,23.7,13.69h0l11.85,6.84h0l11.85-6.84,11.85-6.84Zm-11.85,6.85Z"/><path class="cls-3" d="M94.8,116.32h0L83,109.48h0L71.1,102.64h0L59.25,95.79,47.4,89,35.55,82.11h0L23.7,75.27,11.85,68.42,0,61.58V184.73H0l11.85,6.85,11.85,6.84,11.85,6.84h0L47.4,212.1h0L59.25,219l11.85,6.83h0L83,232.63h0l11.85,6.84,11.86,6.84V219L83,205.26,71.1,198.42l-11.85-6.84h0L47.4,184.73h0L35.55,177.9h0L23.7,171.05h0V157.37l11.85,6.84,11.85,6.84h0l11.85,6.84h0l11.85,6.83h0V171.05h0V157.37l-11.85-6.84L47.4,143.68l-11.85-6.84L23.7,130V102.63h0l11.85,6.84h0l11.85,6.84L71.1,130,83,136.84l11.85,6.84,11.86,6.84V123.16Zm-82.95,6.84Zm0-27.37Z"/></g></g></svg>